# File created by Blade
# Date/Time:  Thu Jan 22 15:49:58 2015
# Frame Rate: 120.000 fps
#------------------------------------------------------
:FULLY-SPECIFIED
:DEGREES
1576
root 3.136217 37.094749 4.396775 -5.329042 -1.924904 2.845241
RightUpLeg 12.711920 -6.561931 -5.956447
RightLeg -5.002024 -0.000000 0.000000
RightFoot -11.907230 -13.088905 16.624578
RightToeBase 15.058427 -0.000000 -0.000000
LeftUpLeg 10.911129 5.457162 1.769523
LeftLeg -2.423245 -0.000000 0.000000
LeftFoot -6.474423 7.266263 -16.566378
LeftToeBase 8.617353 -0.000000 -0.000000
Spine 4.788298 -16.301041 -6.043837
RightShoulder 1.606896 -18.112148 -15.189194
RightArm 45.456955 -16.476835 55.885654
RightForeArm 35.161509 0.000000 86.232489
RightHand 11.453179 -0.000000 -4.924214
RightHandThumb1 -24.326973 -0.000000 -32.862282
LeftShoulder -10.223790 26.537336 22.503073
LeftArm 100.362665 4.708194 -42.326365
LeftForeArm -0.976329 -0.000000 99.659927
LeftHand -19.660480 0.000000 -5.477604
LeftHandThumb1 -26.253704 0.000000 33.147579
Head 3.456553 40.278493 -6.987632
1577
root 3.132270 37.094558 4.395736 -5.343150 -1.866760 2.839071
RightUpLeg 12.740050 -6.572744 -5.951824
RightLeg -5.001479 -0.000000 0.000000
RightFoot -11.905011 -13.094260 16.608064
RightToeBase 15.008880 -0.000000 -0.000000
LeftUpLeg 10.919011 5.426988 1.783141
LeftLeg -2.428562 -0.000000 0.000000
LeftFoot -6.457043 7.235035 -16.562033
LeftToeBase 8.624006 -0.000000 -0.000000
Spine 4.845968 -16.182394 -5.992045
RightShoulder 1.506049 -18.373204 -15.114519
RightArm 44.954632 -16.693972 55.729759
RightForeArm 33.879926 -0.000000 84.445613
RightHand 11.360009 -0.000000 -4.732848
RightHandThumb1 -24.326973 -0.000000 -32.862282
LeftShoulder -10.802656 27.725053 21.282774
LeftArm 99.607210 4.753299 -42.037100
LeftForeArm -0.483778 -0.000000 98.918649
LeftHand -19.855195 0.000000 -5.475355
LeftHandThumb1 -26.253704 0.000000 33.147579
Head 3.406916 40.013955 -6.961269
1578
root 3.130148 37.094631 4.394045 -5.350844 -1.809438 2.851860
RightUpLeg 12.763418 -6.650564 -5.963977
RightLeg -5.021190 -0.000000 0.000000
RightFoot -11.910820 -13.119572 16.598117
RightToeBase 15.081324 -0.000000 -0.000000
LeftUpLeg 10.921813 5.392461 1.772699
LeftLeg -2.439709 -0.000000 0.000000
LeftFoot -6.440869 7.220907 -16.568151
LeftToeBase 8.629674 -0.000000 -0.000000
Spine 4.916836 -16.057802 -5.970981
RightShoulder 1.384042 -18.685627 -14.996455
RightArm 44.500631 -16.907875 55.513596
RightForeArm 32.524053 -0.000000 82.667560
RightHand 11.133226 0.000000 -4.873717
RightHandThumb1 -24.326973 -0.000000 -32.862282
LeftShoulder -11.300664 28.851337 20.199845
LeftArm 98.702379 4.964548 -41.905478
LeftForeArm 0.280856 -0.000000 98.271719
LeftHand -20.179721 -0.000000 -5.520685
LeftHandThumb1 -26.253704 0.000000 33.147579
Head 3.311732 39.754458 -6.932578
1579
root 3.127701 37.094666 4.392534 -5.347700 -1.753169 2.847411
RightUpLeg 12.772861 -6.666900 -5.960782
RightLeg -5.022001 -0.000000 0.000000
RightFoot -11.916194 -13.117796 16.612510
RightToeBase 15.069764 -0.000000 -0.000000
LeftUpLeg 10.910074 5.354572 1.778148
LeftLeg -2.440195 -0.000000 0.000000
LeftFoot -6.429461 7.197559 -16.576572
LeftToeBase 8.675522 -0.000000 -0.000000
Spine 4.966684 -15.946655 -5.908016
RightShoulder 1.303706 -18.879759 -14.908433
RightArm 43.902945 -17.218289 55.327414
RightForeArm 31.245584 -0.000000 80.897717
RightHand 10.876933 -0.000000 -5.011294
RightHandThumb1 -24.326973 -0.000000 -32.862282
LeftShoulder -11.791134 29.833396 19.114311
LeftArm 97.607024 5.248160 -41.791506
LeftForeArm 1.004045 0.000000 97.642374
LeftHand -20.355267 -0.000000 -5.255587
LeftHandThumb1 -26.253704 0.000000 33.147579
Head 3.246113 39.653897 -6.858028
1580
root 3.128045 37.094391 4.392288 -5.358939 -1.678278 2.851009
RightUpLeg 12.809095 -6.722629 -5.976465
RightLeg -5.039142 -0.000000 0.000000
RightFoot -11.907943 -13.118041 16.613358
RightToeBase 15.066308 -0.000000 -0.000000
LeftUpLeg 10.914344 5.283325 1.766315
LeftLeg -2.447067 -0.000000 0.000000
LeftFoot -6.421624 7.211006 -16.562265
LeftToeBase 8.585576 -0.000000 -0.000000
Spine 5.058677 -15.893191 -5.848948
RightShoulder 1.224901 -19.112862 -14.825067
RightArm 43.397328 -17.513579 55.142903
RightForeArm 30.049470 0.000000 79.087735
RightHand 10.505586 -0.000000 -5.188634
RightHandThumb1 -24.326973 -0.000000 -32.862282
LeftShoulder -12.355017 30.583582 18.048946
LeftArm 96.334294 5.733484 -41.777076
LeftForeArm 1.870963 -0.000000 97.050786
LeftHand -20.533119 -0.000000 -5.463276
LeftHandThumb1 -26.253704 0.000000 33.147579
Head 3.058759 39.437997 -6.952295
1581
root 3.125789 37.094544 4.390736 -5.322984 -1.619351 2.878801
RightUpLeg 12.793272 -6.784170 -5.993164
RightLeg -5.068101 -0.000000 0.000000
RightFoot -11.932217 -13.169656 16.616450
RightToeBase 15.122774 -0.000000 -0.000000
LeftUpLeg 10.865150 5.250005 1.735667
LeftLeg -2.443793 -0.000000 0.000000
LeftFoot -6.402145 7.197641 -16.574886
LeftToeBase 8.659206 -0.000000 -0.000000
Spine 5.093917 -15.884184 -5.826353
RightShoulder 1.211105 -19.326269 -14.716921
RightArm 42.824190 -17.816420 55.001423
RightForeArm 28.889955 -0.000000 77.299059
RightHand 9.993813 -0.000000 -5.329486
RightHandThumb1 -24.326973 -0.000000 -32.862282
LeftShoulder -13.189755 31.708540 16.662311
LeftArm 95.400268 5.840690 -41.591183
LeftForeArm 2.558087 -0.000000 96.354553
LeftHand -20.774579 -0.000000 -5.365249
LeftHandThumb1 -26.253704 0.000000 33.147579
Head 2.856770 39.224749 -7.055651
1582
root 3.123072 37.094683 4.389053 -5.307189 -1.585770 2.890090
RightUpLeg 12.770270 -6.838165 -5.996648
RightLeg -5.049867 -0.000000 0.000000
RightFoot -11.945172 -13.196316 16.585469
RightToeBase 15.083913 -0.000000 -0.000000
LeftUpLeg 10.842719 5.222821 1.724097
LeftLeg -2.446009 -0.000000 0.000000
LeftFoot -6.392094 7.193280 -16.600196
LeftToeBase 8.675184 -0.000000 -0.000000
Spine 5.167066 -15.799468 -5.794593
RightShoulder 1.183279 -19.585479 -14.567727
RightArm 42.257743 -18.114482 54.791117
RightForeArm 27.829825 0.000000 75.516219
RightHand 9.665619 -0.000000 -5.703855
RightHandThumb1 -24.326973 -0.000000 -32.862282
LeftShoulder -14.018074 32.671187 15.313695
LeftArm 94.386237 6.050292 -41.449059
LeftForeArm 3.071696 -0.000000 95.619716
LeftHand -21.069008 -0.000000 -4.988364
LeftHandThumb1 -26.253704 0.000000 33.147579
Head 2.633575 39.035209 -7.122242
1583
root 3.117648 37.094896 4.387846 -5.260560 -1.547353 2.901284
RightUpLeg 12.755079 -6.798852 -5.987288
RightLeg -5.099660 -0.000000 0.000000
RightFoot -11.939361 -13.258432 16.612199
RightToeBase 15.074990 -0.000000 -0.000000
LeftUpLeg 10.786580 5.213772 1.719341
LeftLeg -2.442269 -0.000000 0.000000
LeftFoot -6.365545 7.167752 -16.589876
LeftToeBase 8.616087 -0.000000 -0.000000
Spine 5.212204 -15.862258 -5.758657
RightShoulder 1.288323 -19.749666 -14.510863
RightArm 41.616144 -18.546044 54.544699
RightForeArm 26.901329 -0.000000 73.770704
RightHand 9.324943 0.000000 -6.215462
RightHandThumb1 -24.326973 -0.000000 -32.862282
LeftShoulder -15.035961 33.651447 13.870755
LeftArm 93.289740 6.233273 -41.364675
LeftForeArm 3.552530 -0.000000 94.922143
LeftHand -21.308160 -0.000000 -5.008877
LeftHandThumb1 -26.253704 0.000000 33.147579
Head 2.335827 38.992963 -7.274421
1584
root 3.115374 37.093033 4.385238 -5.243242 -1.524634 2.886008
RightUpLeg 12.724811 -6.798335 -5.965588
RightLeg -5.068056 -0.000000 0.000000
RightFoot -11.977293 -13.265887 16.628085
RightToeBase 15.060100 -0.000000 -0.000000
LeftUpLeg 10.762247 5.178052 1.732614
LeftLeg -2.440760 -0.000000 0.000000
LeftFoot -6.381725 7.169296 -16.604973
LeftToeBase 8.650123 -0.000000 -0.000000
Spine 5.291913 -15.337941 -5.673973
RightShoulder 0.871207 -20.144283 -14.205049
RightArm 40.986981 -18.776832 54.428392
RightForeArm 25.986457 0.000000 71.950219
RightHand 8.919760 -0.000000 -6.457046
RightHandThumb1 -24.326973 -0.000000 -32.862282
LeftShoulder -15.434149 34.680585 12.789717
LeftArm 92.338315 6.328936 -41.397812
LeftForeArm 4.053977 -0.000000 94.169634
LeftHand -21.720900 -0.000000 -5.031876
LeftHandThumb1 -26.253704 0.000000 33.147579
Head 2.174631 38.322816 -7.222121
1585
root 3.115504 37.091863 4.389179 -5.252286 -1.451767 2.905102
RightUpLeg 12.773000 -6.895630 -5.996635
RightLeg -5.101131 -0.000000 0.000000
RightFoot -11.991255 -13.255862 16.632071
RightToeBase 15.094573 -0.000000 -0.000000
LeftUpLeg 10.763109 5.119202 1.709492
LeftLeg -2.431625 -0.000000 0.000000
LeftFoot -6.387412 7.153472 -16.608618
LeftToeBase 8.657703 -0.000000 -0.000000
Spine 5.421018 -15.166510 -5.646171
RightShoulder 0.734410 -20.496433 -14.046139
RightArm 40.418395 -19.033709 54.370222
RightForeArm 24.797014 -0.000000 70.072471
RightHand 8.448733 -0.000000 -6.765450
RightHandThumb1 -24.326973 -0.000000 -32.862282
LeftShoulder -16.099819 35.272330 11.671480
LeftArm 90.965383 6.776667 -41.521183
LeftForeArm 4.494598 -0.000000 93.453322
LeftHand -22.042906 -0.000000 -4.898392
LeftHandThumb1 -26.253704 0.000000 33.147579
Head 1.842201 37.981151 -7.397903
1586
root 3.111729 37.089438 4.390474 -5.230896 -1.386231 2.921728
RightUpLeg 12.780745 -6.952055 -6.010044
RightLeg -5.128750 -0.000000 0.000000
RightFoot -12.023063 -13.268751 16.632542
RightToeBase 15.112041 -0.000000 -0.000000
LeftUpLeg 10.734896 5.066523 1.692870
LeftLeg -2.431563 -0.000000 0.000000
LeftFoot -6.381756 7.146714 -16.590153
LeftToeBase 8.622199 -0.000000 -0.000000
Spine 5.528990 -15.017676 -5.599930
RightShoulder 0.595954 -20.872088 -13.924588
RightArm 39.930824 -19.364943 54.248288
RightForeArm 23.666287 -0.000000 68.123593
RightHand 8.224882 0.000000 -7.169606
RightHandThumb1 -24.326973 -0.000000 -32.862282
LeftShoulder -15.950147 33.593440 11.913810
LeftArm 87.556779 9.275210 -42.495272
LeftForeArm 5.225940 0.000000 92.989982
LeftHand -22.319781 0.000000 -4.986341
LeftHandThumb1 -26.253704 0.000000 33.147579
Head 1.465115 37.712964 -7.606934
1587
root 3.112359 37.087169 4.396020 -5.215565 -1.305875 2.954532
RightUpLeg 12.805841 -7.029158 -6.059639
RightLeg -5.153128 -0.000000 0.000000
RightFoot -12.050229 -13.222324 16.631343
RightToeBase 15.170910 -0.000000 -0.000000
LeftUpLeg 10.723606 4.974930 1.646108
LeftLeg -2.443243 -0.000000 0.000000
LeftFoot -6.386211 7.159652 -16.585242
LeftToeBase 8.694813 -0.000000 -0.000000
Spine 5.610151 -14.855392 -5.526332
RightShoulder 0.496674 -21.219687 -13.891246
RightArm 39.344404 -19.707903 54.280119
RightForeArm 22.467567 -0.000000 66.140989
RightHand 7.994112 -0.000000 -7.655127
RightHandThumb1 -24.326973 -0.000000 -32.862282
LeftShoulder -15.445587 31.473051 12.521495
LeftArm 83.428820 12.062153 -43.928199
LeftForeArm 6.140430 -0.000000 92.637788
LeftHand -22.556673 -0.000000 -5.125876
LeftHandThumb1 -26.253704 0.000000 33.147579
Head 1.159871 37.358305 -7.891933
